<svg width="45" height="45" viewBox="0 0 45 45" fill="none" xmlns="http://www.w3.org/2000/svg">
<g clip-path="url(#clip0)">
<path d="M42.862 35.254L35.27 42.857C33.738 44.392 32.036 45.006 29.959 45.006H15.049C12.904 45.04 11.236 44.358 9.738 42.857L2.146 35.254C0.716999 33.855 0.0019989 32.218 0.0019989 30.104V14.725C0.0019989 12.884 0.682999 11.213 1.942 9.95102L9.942 1.97202C11.236 0.676019 12.938 -0.00598145 14.946 -0.00598145H30.061C32.07 -0.00598145 33.738 0.676019 35.065 1.97202L43.066 9.95102C44.325 11.213 45.006 12.884 45.006 14.725V30.104C45.006 32.184 44.257 33.855 42.862 35.254ZM42.045 24.921C42.01 24.478 41.772 24.239 41.33 24.239H39.049V25.842C39.049 27.035 38.878 27.649 37.857 27.649H36.836C35.815 27.649 35.644 27.035 35.644 25.842V24.239H34.044C32.853 24.239 32.24 24.069 32.24 23.045V21.954C32.24 20.931 32.853 20.761 34.044 20.761H35.644V19.158C35.644 17.965 35.815 17.351 36.836 17.351H37.857C38.878 17.351 39.049 17.965 39.049 19.158V20.761H41.33C41.806 20.761 42.045 20.488 42.045 19.977V15.066C42.045 13.805 41.602 12.713 40.717 11.793L32.989 3.95002C32.206 3.16502 31.219 2.92702 30.096 2.92702H14.912C13.789 2.92702 12.802 3.16502 12.019 3.95002L4.292 11.793C3.372 12.713 2.963 13.805 2.963 15.066V30.104C2.929 31.366 3.338 32.286 4.223 33.173L11.815 40.778C12.7 41.664 13.687 42.073 14.912 42.073H30.096C31.321 42.073 32.308 41.664 33.193 40.778L40.785 33.173C41.67 32.321 42.045 31.366 42.045 30.104V24.921ZM31.083 27.683C31.083 31.468 29.755 33.344 24.614 33.446C19.474 33.344 18.147 31.468 18.147 27.683C18.147 25.126 18.317 23.182 20.597 22.295C18.691 20.898 18.657 19.465 18.657 18.306V17.146C18.862 13.293 20.155 11.827 24.614 11.827C29.074 11.827 30.367 13.293 30.572 17.146V18.306C30.572 19.465 30.538 20.898 28.631 22.295C30.913 23.182 31.083 25.126 31.083 27.683ZM24.614 14.964C22.743 14.964 21.993 15.646 21.993 17.931C21.993 20.147 22.743 20.898 24.614 20.898C26.487 20.898 27.236 20.147 27.236 17.931C27.236 15.646 26.487 14.964 24.614 14.964ZM24.614 24.069C22.436 24.069 21.653 25.057 21.653 27.206C21.653 29.354 22.436 30.207 24.614 30.207C26.793 30.207 27.576 29.354 27.576 27.206C27.576 25.057 26.793 24.069 24.614 24.069ZM14.441 33.173H13.284C12.296 33.173 12.092 32.559 12.092 31.366V16.635C12.092 15.953 11.888 15.714 11.445 15.714H10.73C9.54 15.714 8.926 15.509 8.926 14.521V13.395C8.926 12.407 9.54 12.202 10.73 12.202H13.828C15.02 12.202 15.633 12.407 15.633 13.395V31.366C15.633 32.559 15.428 33.173 14.441 33.173Z" fill="white"/>
</g>
<defs>
<clipPath id="clip0">
<rect width="45" height="45" fill="white"/>
</clipPath>
</defs>
</svg>
