<svg width="70" height="45" viewBox="0 0 70 45" fill="none" xmlns="http://www.w3.org/2000/svg">
<g clip-path="url(#clip0)">
<path d="M40.7144 13.839H39.0778V28.641H40.7144V34.0355H28.3417V28.641H29.9129V17.1283L24.3484 34.0355H19.5042L13.7761 17.2928V28.641H15.3472V34.0355H4.61118V28.641H6.24777V13.839H4.61118V8.44446H19.6024L23.0064 18.7072L26.2796 8.44446H40.7144V13.839ZM42.01 34.0355V28.641H43.6466V13.839H42.01V8.44446H64.1041V18.3783H56.7721V13.839H52.8116V19.0361H55.692V22.786H52.8116V28.641H56.7721V23.4438H64.1041V34.0355H42.01Z" fill="white"/>
<path d="M27.5039 1.37061H0.22731V1.82746H27.5039V1.37061Z" fill="#C4C4C4"/>
<path d="M0.45461 1.37061H0V28.7818H0.45461V1.37061Z" fill="#C4C4C4"/>
<path d="M69.328 37.6903H42.0514V38.1472H69.328V37.6903Z" fill="#C4C4C4"/>
<path d="M69.7826 10.7361H69.328V38.1473H69.7826V10.7361Z" fill="#C4C4C4"/>
</g>
<defs>
<clipPath id="clip0">
<rect width="69.7826" height="45" fill="white"/>
</clipPath>
</defs>
</svg>
